# xmcd CD database file
#
# Track frame offsets:
#	150
#	16895
#	38085
#	56230
#	84345
#	103690
#	122410
#	139430
#	162860
#	179480
#	193295
#	212810
#	226330
#	252100
#
# Disc length: 3882 seconds
#
# Revision: 1
# Processed by: cddbd v1.5.2PL0 Copyright (c) Steve Scherf et al.
# Submitted via: CDex 1.70beta3
#
DISCID=c10f280e
DTITLE=Free - Heartbreaker +6
DYEAR=1973
DGENRE=Hark Rock
TTITLE0=Wishing Well
TTITLE1=Come Together In The Morning
TTITLE2=Travelling In Style
TTITLE3=Heartbreaker
TTITLE4=Muddy Water
TTITLE5=Common Mortal Man
TTITLE6=Easy On My Soul
TTITLE7=Seven Angels
TTITLE8=Wishing Well (US Mix)
TTITLE9=Let Me Show You (Single B-side)
TTITLE10=Muddy Water (Alternative Vocal)
TTITLE11=Turn Me Round (Prospective Album track)
TTITLE12=Heartbreaker (Rehearsal Version)
TTITLE13=Easy On My Soul (Rehearsal Version)
EXTD=YEAR: 1973
EXTT0=
EXTT1=
EXTT2=
EXTT3=
EXTT4=
EXTT5=
EXTT6=
EXTT7=
EXTT8=
EXTT9=
EXTT10=
EXTT11=
EXTT12=
EXTT13=
PLAYORDER=
